<?xml version="1.0" encoding="UTF-8" standalone="no"?>
<!-- Created with Inkscape (http://www.inkscape.org/) -->

<svg
   xmlns:dc="http://purl.org/dc/elements/1.1/"
   xmlns:cc="http://creativecommons.org/ns#"
   xmlns:rdf="http://www.w3.org/1999/02/22-rdf-syntax-ns#"
   xmlns:svg="http://www.w3.org/2000/svg"
   xmlns="http://www.w3.org/2000/svg"
   version="1.1"
   width="506.18515"
   height="498.18631"
   id="svg3336">
  <defs
     id="defs3338" />
  <metadata
     id="metadata3341">
    <rdf:RDF>
      <cc:Work
         rdf:about="">
        <dc:format>image/svg+xml</dc:format>
        <dc:type
           rdf:resource="http://purl.org/dc/dcmitype/StillImage" />
        <dc:title></dc:title>
      </cc:Work>
    </rdf:RDF>
  </metadata>
  <g
     transform="translate(-34.050262,-50.785802)"
     id="layer1">
    <g
       transform="matrix(2.6377625,0,0,2.6377625,-694.22944,-1088.0618)"
       id="g3289"
       style="display:inline">
      <path
         d="m 372.09412,558.5918 c -5.51025,0 -10.68674,-1.38183 -15.25,-3.78125 0.58962,-0.48529 1.58829,-2.2541 5.09375,-8.6875 2.12746,-3.90444 4.19263,-7.5805 4.59375,-8.15625 0.35389,-0.50798 0.62244,-1.31085 0.6875,-1.9375 1.48537,0.70606 3.12238,1.125 4.875,1.125 2.142,0 4.13369,-0.59835 5.84375,-1.625 0.0374,0.11803 0.11235,0.23339 0.1875,0.375 1.07616,2.02789 8.96208,14.49183 10.25,16.1875 l 1.15625,1.5 c -5.05172,3.17381 -11.031,5 -17.4375,5 z m -11.40625,-33.59375 -0.0625,-0.1875 -10.59375,-0.0625 c -5.40807,-0.0385 -9.36269,0.0181 -10.8125,0.1875 0.26212,-11.16412 6.10693,-20.92017 14.84375,-26.65625 1.51214,2.74865 5.32479,9.08809 8.84375,14.65625 1.21739,1.92631 1.94282,2.99226 2.46875,3.5625 -2.66364,1.9498 -4.46695,5.00492 -4.6875,8.5 z m 22.75,-0.4375 c -0.33732,-3.33606 -2.11345,-6.25828 -4.6875,-8.125 0.4321,-0.71657 1.64502,-3.01016 3.125,-5.9375 1.6759,-3.31489 3.88956,-7.54559 4.9375,-9.40625 0.84156,-1.4942 1.56206,-2.97817 1.8125,-3.75 9.18268,5.36475 15.54173,15.05524 16.25,26.28125 -0.42974,-0.007 -0.92884,0.008 -1.5625,0.0312 -1.30384,0.0486 -6.14284,0.12607 -10.78125,0.1875 -5.69081,0.0754 -8.08617,0.12968 -9.09375,0.71875 z"
         id="path3221"
         style="fill:#ffffff;fill-opacity:1;stroke:none" />
      <path
         d="m 369.68433,431.74759 c -3.10609,0.002 -10.06451,0.70164 -10.84375,1.09375 -0.64858,0.32636 -0.79458,1.13923 -1.53125,7.75 -0.45267,4.06208 -0.9091,7.50917 -1,7.65625 -0.19019,0.30775 -6.58312,2.3788 -10.34375,3.34375 -2.39314,0.61403 -2.60931,0.59437 -3.46875,0.0312 -0.50321,-0.32972 -2.79583,-2.98854 -5.09375,-5.9375 -3.04295,-3.90507 -4.38961,-5.378 -4.9375,-5.375 -0.72689,0.004 -7.78356,4.21275 -10.21875,6.09375 l -1.1875,0.9375 2.1875,6.625 c 1.21564,3.65195 2.21875,6.97806 2.21875,7.375 0,0.76364 -1.88835,2.65993 -6.53125,6.59375 -2.01245,1.70511 -3.07858,2.375 -3.8125,2.375 -0.55915,0 -3.57452,-1.19814 -6.6875,-2.65625 -3.11299,-1.4581 -6.07615,-2.74605 -6.59375,-2.875 -0.87173,-0.21717 -1.21624,0.10016 -4.5625,4.46875 -1.98687,2.59389 -3.59375,4.91898 -3.59375,5.15625 0,0.23727 1.69482,2.58338 3.78125,5.21875 2.08643,2.63536 4.18081,5.28754 4.65625,5.90625 l 0.875,1.125 -1.65625,3.71875 c -2.00547,4.48863 -3.17733,6.5841 -4.40625,7.90625 l -0.9375,1 -5.53125,-0.21875 c -3.04685,-0.11573 -6.09375,-0.26025 -6.78125,-0.34375 -2.28986,-0.27815 -2.73658,0.40727 -4.1875,6.6875 -0.95589,4.13733 -1.19518,5.72388 -0.90625,6.0625 0.21525,0.25227 3.15472,1.88839 6.5,3.65625 l 6.0625,3.21875 0.0312,5.78125 c 0.0124,8.20678 0.4479,7.60108 -7.71875,10.84375 -3.60946,1.43318 -6.78985,2.87787 -7.0625,3.1875 -0.53899,0.6121 -0.40367,2.18953 0.71875,8.34375 0.81982,4.49506 0.60127,4.35477 8.40625,4.65625 3.55245,0.13722 6.89247,0.35974 7.4375,0.46875 1.13465,0.22693 1.22967,0.37541 3.46875,6.34375 2.57487,6.86338 2.86924,5.83924 -3.28125,12 -4.17357,4.18054 -5.2448,5.42237 -5.09375,6 0.10513,0.40201 1.53017,2.76754 3.15625,5.25 l 2.9375,4.5 1.28125,-0.15625 c 0.70288,-0.0869 4.22886,-1.29003 7.84375,-2.6875 l 6.59375,-2.53125 2.6875,2.46875 c 1.49225,1.3534 3.70026,3.42879 4.875,4.625 l 2.125,2.15625 -0.65625,1.875 c -0.36145,1.0177 -1.6099,4.12673 -2.78125,6.9375 -1.17136,2.81077 -2.09645,5.41162 -2.03125,5.75 0.15091,0.78362 9.0606,6.5 10.125,6.5 0.54538,0 2.62145,-1.74803 6.53125,-5.53125 l 5.71875,-5.53125 4.21875,1.46875 c 2.32853,0.80088 5.23501,1.92833 6.4375,2.5 l 2.1875,1.03125 0.25,6.09375 c 0.14327,3.35207 0.3922,6.51134 0.53125,7.03125 0.29003,1.08449 0.61858,1.22235 6.34375,2.21875 5.11854,0.89083 6.38649,0.88885 6.625,0.0937 0.42574,-1.4193 5.70687,-12.80857 6.1875,-13.34375 0.39172,-0.43617 1.5207,-0.62557 4.53125,-0.8125 2.20177,-0.13672 5.13438,-0.40615 6.5,-0.59375 2.34034,-0.3215 2.5176,-0.29711 3.28125,0.46875 0.44559,0.44689 1.69001,2.82905 2.78125,5.28125 1.09125,2.45219 2.44228,5.08406 2.96875,5.84375 0.92785,1.33889 0.98955,1.36651 2.5625,1.15625 2.14497,-0.28671 10.69859,-2.88125 11.21875,-3.40625 0.2788,-0.28124 0.4063,-2.70423 0.4063,-7.6249 l 0,-7.21875 2.5,-1.71875 c 4.61269,-3.19558 8.19385,-5.25 9.125,-5.25 0.62017,0 2.73246,1.33659 6.4375,4.09375 3.03552,2.25893 5.7961,4.125 6.15625,4.125 0.36014,0 2.65449,-1.72458 5.09375,-3.8125 3.47015,-2.97032 4.4375,-3.99209 4.4375,-4.6875 0,-0.83583 -0.76243,-2.61291 -4.25,-10.15625 l -1.4375,-3.125 2.46875,-3.65625 c 1.35014,-2.01165 3.23779,-4.51399 4.1875,-5.53125 l 1.71875,-1.84375 6.875,1.4375 c 3.7922,0.78855 7.11923,1.3481 7.375,1.25 0.25577,-0.0982 1.44307,-1.84473 2.625,-3.875 2.93728,-5.04554 3.74467,-6.69384 3.53125,-7.25 -0.0999,-0.26043 -2.58607,-2.58147 -5.53125,-5.15625 -2.94518,-2.57479 -5.4296,-4.97479 -5.5,-5.3125 -0.21833,-1.04737 2.36599,-10.67882 3.125,-11.65625 0.59267,-0.76321 1.88002,-1.25151 7.625,-2.875 3.80814,-1.07615 7.1385,-2.15278 7.40625,-2.375 0.64558,-0.53576 0.7338,-11.91694 0.0937,-12.3125 -0.22767,-0.14071 -3.33499,-0.78901 -6.875,-1.4375 -4.54382,-0.83238 -6.61651,-1.36088 -7.0625,-1.8125 -0.43939,-0.44493 -0.89783,-2.2716 -1.53125,-6.03125 -0.50092,-2.97315 -0.90625,-5.81574 -0.90625,-6.3125 0,-1.0617 1.41517,-2.38449 7.59375,-7.09375 2.30803,-1.75916 4.1875,-3.36779 4.1875,-3.5625 0,-0.57061 -2.49869,-7.1362 -3.40625,-8.9375 -0.45775,-0.90852 -1.05079,-1.74332 -1.3125,-1.84375 -0.26172,-0.10043 -3.14099,0.45674 -6.375,1.21875 -3.23401,0.76201 -6.56956,1.374 -7.40625,1.375 -1.72595,0.003 -1.37958,0.40778 -5.96875,-6.75 -2.53097,-3.94757 -2.59666,-4.13343 -2.15625,-5.1875 0.47292,-1.13184 4.50177,-7.78488 6.34375,-10.46875 0.57682,-0.84046 0.9999,-1.76027 0.9375,-2.03125 -0.18509,-0.80346 -8.49689,-8.40625 -9.1875,-8.40625 -0.34894,0 -3.22647,1.83482 -6.40625,4.09375 -4.02388,2.8586 -6.0684,4.129 -6.75,4.125 -1.00637,-0.006 -8.50416,-4.10163 -10.6875,-5.84375 -0.77952,-0.62199 -1.1875,-1.28356 -1.1875,-1.84375 0,-0.47824 0.47429,-3.80456 1.0625,-7.375 0.77091,-4.67933 0.96262,-6.60601 0.6875,-6.9375 -0.55136,-0.66436 -9.92679,-3.72175 -11.40625,-3.71875 -1.42292,0.003 -1.17579,-0.30364 -5.65625,6.96875 -1.57324,2.55358 -3.22864,4.99311 -3.6875,5.40625 l -0.84375,0.75 -6.25,-0.875 c -3.43698,-0.46875 -6.40448,-1.0422 -6.625,-1.28125 -0.22053,-0.23904 -1.09969,-2.77678 -1.9375,-5.625 -0.8378,-2.84821 -1.89004,-6 -2.34375,-7.03125 l -0.8125,-1.875 -1.90625,0 z m 2.375,49.78125 c 24.65557,0 44.625,20.00068 44.625,44.65625 0,24.65557 -19.96943,44.625 -44.625,44.625 -24.65557,0 -44.65625,-19.96943 -44.65625,-44.625 0,-24.65557 20.00068,-44.65625 44.65625,-44.65625 z"
         id="path3199"
         style="fill:#ffffff;fill-opacity:1;stroke:none" />
      <path
         d="m 352.14285,680.04077 a 8.75,8.75 0 1 1 -17.5,0 8.75,8.75 0 1 1 17.5,0 z"
         transform="matrix(0.85569249,0,0,0.85569249,78.208556,-55.72469)"
         id="path3213"
         style="fill:#ffffff;fill-opacity:1;stroke:none" />
    </g>
  </g>
</svg>
